<svg width="16" height="16" viewBox="0 0 16 16" fill="none" xmlns="http://www.w3.org/2000/svg">
<path d="M15.4541 2.49058C15.9911 1.95361 15.9911 1.08301 15.4541 0.546039C14.9171 0.00906779 14.0465 0.00906779 13.5095 0.546039L8.00001 6.05557L2.49048 0.546039C1.95351 0.00906902 1.0829 0.00906841 0.545934 0.546039C0.00896282 1.08301 0.0089632 1.95361 0.545934 2.49058L6.05546 8.00012L0.545916 13.5097C0.00894607 14.0466 0.00894552 14.9172 0.545916 15.4542C1.08289 15.9912 1.95349 15.9912 2.49046 15.4542L8.00001 9.94466L13.5096 15.4542C14.0465 15.9912 14.9171 15.9912 15.4541 15.4542C15.9911 14.9172 15.9911 14.0466 15.4541 13.5097L9.94455 8.00012L15.4541 2.49058Z" fill="black"/>
</svg>
