<svg width="255" height="54" viewBox="0 0 255 54" fill="none" xmlns="http://www.w3.org/2000/svg">
<path d="M141.969 41.682C141.18 41.682 139.996 42.3526 139.601 42.4867C138.68 42.6208 137.496 42.2185 136.839 36.9879C136.444 33.9032 136.839 30.6844 136.97 27.4656C136.97 26.6609 128.814 27.8679 128.814 30.4161C128.682 34.3056 128.156 38.3291 129.077 42.0844C129.077 42.2185 129.077 42.2185 129.208 42.3526C125.262 43.4255 121.315 41.2797 119.868 36.9879C119.474 35.7808 119.342 34.4397 119.342 33.0985C119.342 32.6961 119.474 30.1479 119.737 29.3432C125.262 28.2703 130.524 26.3926 135.391 23.7103C135.918 23.442 137.233 22.7715 137.102 21.9668C135.655 10.5668 124.473 12.7127 116.711 16.3338C114.738 17.2726 114.211 17.8091 114.343 19.1503C114.475 20.3573 115.79 20.6256 116.842 20.3573C118.158 19.955 118.816 18.4797 120.394 17.8091C125.525 15.395 127.893 19.4185 128.814 23.9785C125.657 25.3197 116.842 26.9291 113.817 27.4656C112.501 27.7338 112.238 28.6726 111.975 29.4773C111.58 31.355 111.317 33.2326 111.317 35.1103C111.186 37.3903 110.923 41.8161 108.949 42.0844C106.976 42.4867 107.371 33.635 107.371 31.7573C107.502 27.4656 107.897 23.442 106.976 19.1503C105.529 12.4444 98.0304 13.3832 92.6367 15.7974C89.7426 12.4444 84.0858 12.9809 78.9552 14.4562C77.6397 14.8585 74.3509 15.6632 74.0878 17.4068C73.0353 27.7338 72.246 38.8655 73.9562 49.1926C67.6417 46.7785 62.248 39.9385 60.8009 33.0985C66.3261 32.2938 71.1936 30.1479 70.5358 23.3079C69.3518 11.5056 57.1174 10.4327 46.067 15.395C44.883 15.9315 44.4883 16.7362 44.0937 18.4797C42.515 24.3809 41.4626 35.5126 43.0413 44.7667C43.1728 45.4373 44.883 46.3761 47.5141 46.3761C50.1451 46.3761 51.9869 45.7055 51.8553 44.7667C49.0927 33.7691 50.6713 21.2962 52.1184 16.6021C63.5635 15.5291 62.7742 27.7338 62.6426 29.4773C62.3795 31.2209 60.1431 31.4891 59.4854 29.6114C58.8276 27.8679 52.1184 29.2091 52.25 32.8303C52.6446 45.8396 65.0106 55.2279 77.245 53.3502C78.1659 53.2161 83.428 51.8749 83.1649 50.2655C80.2707 39.8044 80.5339 28.5385 81.5863 17.8091C89.8741 14.0538 86.0591 38.7314 85.9275 45.0349C85.9275 45.4373 87.1115 46.1079 90.1372 46.1079C92.8998 46.1079 94.0838 45.8396 94.0838 44.6326C94.2154 39.2679 94.3469 32.8303 94.3469 26.9291C94.3469 25.1856 94.4785 20.4915 93.426 18.4797C100.004 15.2609 99.3459 27.7338 99.2144 30.1479C99.2144 34.4397 98.0304 41.4138 101.451 44.9008C104.082 47.5832 110.133 46.1079 113.422 43.0232C114.08 43.8279 115.001 44.6326 116.053 45.1691C120 47.4491 125.525 46.3761 130.261 44.4985C132.234 46.1079 135.523 45.9738 138.154 45.3032C139.47 45.0349 141.838 44.2302 142.627 42.7549C143.022 42.2185 142.758 41.682 141.969 41.682Z" fill="#080808"/>
<path d="M39.3591 39.8044C39.2275 38.5974 37.5173 38.5974 36.5965 38.7315C34.7547 38.9997 34.0969 41.1456 31.729 42.2185C30.2819 42.8891 28.4402 43.0232 27.2562 42.6209C23.7043 41.4138 22.9149 38.4632 22.3887 35.2444C21.731 30.5503 21.9941 24.3809 23.5727 19.8209C23.9674 18.6139 17.3897 17.0045 15.8111 20.8939C13.0485 28.0021 11.996 39.2679 18.179 44.6326C23.1781 48.9244 30.9397 46.3762 36.4649 42.8891C37.5173 42.2185 39.4906 40.7432 39.3591 39.8044Z" fill="#080808"/>
<path d="M7.5222 12.7102C10.6795 11.7714 11.0741 11.2349 11.0741 10.2961C11.0741 8.01607 11.3372 5.73608 12.5212 3.99255C14.0998 3.85844 16.3362 4.39491 18.178 4.79726C20.2828 5.19961 21.7299 4.66314 23.0454 3.99255C23.177 3.99255 26.4658 1.84668 25.1503 1.57844C15.6785 -1.37214 3.3125 0.907856 3.3125 12.5761C3.3125 13.5149 4.49648 13.649 7.5222 12.7102Z" fill="#080808"/>
<path d="M11.2054 17.0024C18.8355 15.2589 28.0442 14.0518 31.2015 22.0988C31.8592 23.7083 32.1224 25.4518 32.1224 27.1953C32.1224 28.6706 31.7277 29.8777 29.4913 29.4753C28.5704 29.3412 26.2025 28.1341 24.8869 28.9388C23.5714 29.7435 23.8345 32.9623 25.15 32.8282C29.6228 32.56 39.6209 31.2188 40.2786 25.1835C40.6733 21.2941 40.0155 17.8071 36.332 14.8565C29.7544 9.49182 11.8632 13.3812 1.33897 16.7342C0.15499 17.1365 -0.371222 18.4777 0.286543 19.1483C1.07586 19.8189 3.04915 19.0141 2.9176 19.1483C1.99673 25.72 1.99673 39.6682 2.6545 46.5082C2.6545 47.0447 3.57537 47.3129 6.20643 47.3129C8.83748 47.3129 10.8108 46.6423 10.6792 45.5694C10.4161 36.9859 9.6268 25.8541 11.2054 17.0024Z" fill="#080808"/>
<mask id="path-5-outside-1_153_6" maskUnits="userSpaceOnUse" x="151.103" y="13.7506" width="104" height="33" fill="black">
<rect fill="white" x="151.103" y="13.7506" width="104" height="33"/>
<path d="M157.779 24.3009C156.97 24.3009 156.238 24.1165 155.584 23.7476C154.929 23.3667 154.405 22.8252 154.013 22.1231C153.632 21.4091 153.441 20.5403 153.441 19.5168C153.441 18.4934 153.632 17.6306 154.013 16.9284C154.393 16.2144 154.911 15.6729 155.566 15.304C156.22 14.9351 156.958 14.7506 157.779 14.7506C158.672 14.7506 159.469 14.9529 160.171 15.3575C160.885 15.7503 161.445 16.3096 161.849 17.0355C162.254 17.7496 162.456 18.5767 162.456 19.5168C162.456 20.4689 162.254 21.302 161.849 22.016C161.445 22.73 160.885 23.2894 160.171 23.694C159.469 24.0986 158.672 24.3009 157.779 24.3009ZM152.942 27.6748V14.8399H154.155V17.6603L154.03 19.5347L154.209 21.4269V27.6748H152.942ZM157.69 23.1763C158.356 23.1763 158.951 23.0276 159.475 22.73C159.999 22.4206 160.415 21.9922 160.725 21.4448C161.034 20.8854 161.189 20.2428 161.189 19.5168C161.189 18.7909 161.034 18.1542 160.725 17.6068C160.415 17.0593 159.999 16.6309 159.475 16.3215C158.951 16.0121 158.356 15.8574 157.69 15.8574C157.024 15.8574 156.423 16.0121 155.887 16.3215C155.363 16.6309 154.947 17.0593 154.637 17.6068C154.34 18.1542 154.191 18.7909 154.191 19.5168C154.191 20.2428 154.34 20.8854 154.637 21.4448C154.947 21.9922 155.363 22.4206 155.887 22.73C156.423 23.0276 157.024 23.1763 157.69 23.1763Z"/>
<path d="M169.196 24.3009C168.22 24.3009 167.363 24.0986 166.625 23.694C165.887 23.2775 165.31 22.7122 164.894 21.9981C164.477 21.2722 164.269 20.4451 164.269 19.5168C164.269 18.5886 164.465 17.7674 164.858 17.0534C165.263 16.3394 165.81 15.78 166.5 15.3754C167.202 14.9589 167.988 14.7506 168.857 14.7506C169.737 14.7506 170.517 14.9529 171.195 15.3575C171.885 15.7503 172.427 16.3096 172.82 17.0355C173.212 17.7496 173.409 18.5767 173.409 19.5168C173.409 19.5764 173.403 19.6418 173.391 19.7132C173.391 19.7727 173.391 19.8382 173.391 19.9096H165.233V18.9635H172.712L172.213 19.3383C172.213 18.66 172.064 18.059 171.766 17.5354C171.481 16.9998 171.088 16.5833 170.588 16.2858C170.088 15.9883 169.511 15.8395 168.857 15.8395C168.214 15.8395 167.637 15.9883 167.125 16.2858C166.613 16.5833 166.215 16.9998 165.929 17.5354C165.643 18.0709 165.501 18.6838 165.501 19.374V19.5704C165.501 20.2844 165.655 20.9152 165.965 21.4626C166.286 21.9981 166.726 22.4206 167.286 22.73C167.857 23.0276 168.506 23.1763 169.232 23.1763C169.803 23.1763 170.332 23.0752 170.82 22.8729C171.32 22.6705 171.749 22.3611 172.106 21.9446L172.82 22.7657C172.403 23.2656 171.879 23.6464 171.249 23.9082C170.63 24.17 169.946 24.3009 169.196 24.3009Z"/>
<path d="M183.087 24.2117L179.231 19.5704L180.284 18.9456L184.586 24.2117H183.087ZM176.214 24.2117V14.8399H177.482V24.2117H176.214ZM177.089 20.0345V18.9456H180.106V20.0345H177.089ZM180.391 19.6597L179.213 19.4811L182.944 14.8399H184.319L180.391 19.6597Z"/>
<path d="M184.873 24.1938L184.962 23.1049C185.046 23.1168 185.123 23.1347 185.194 23.1585C185.278 23.1704 185.349 23.1763 185.408 23.1763C185.789 23.1763 186.093 23.0335 186.319 22.7479C186.557 22.4623 186.735 22.0815 186.854 21.6054C186.973 21.1294 187.057 20.5939 187.104 19.9988C187.152 19.3919 187.194 18.785 187.229 18.178L187.39 14.8399H194.263V24.2117H192.995V15.5718L193.317 15.9466H188.211L188.515 15.5539L188.372 18.2673C188.336 19.0765 188.271 19.8501 188.175 20.5879C188.092 21.3258 187.955 21.9743 187.765 22.5337C187.586 23.093 187.336 23.5333 187.015 23.8547C186.694 24.1641 186.283 24.3188 185.783 24.3188C185.641 24.3188 185.492 24.3069 185.337 24.2831C185.194 24.2593 185.04 24.2295 184.873 24.1938Z"/>
<path d="M203.685 24.2117V22.141L203.632 21.8018V18.3387C203.632 17.5413 203.405 16.9284 202.953 16.5C202.513 16.0716 201.852 15.8574 200.972 15.8574C200.365 15.8574 199.788 15.9585 199.24 16.1608C198.693 16.3632 198.229 16.6309 197.848 16.9641L197.277 16.018C197.753 15.6134 198.324 15.304 198.99 15.0898C199.657 14.8637 200.359 14.7506 201.097 14.7506C202.311 14.7506 203.245 15.0541 203.899 15.661C204.566 16.2561 204.899 17.1665 204.899 18.3922V24.2117H203.685ZM200.454 24.3009C199.752 24.3009 199.139 24.1879 198.615 23.9618C198.104 23.7238 197.711 23.4024 197.437 22.9978C197.163 22.5813 197.027 22.1053 197.027 21.5697C197.027 21.0818 197.14 20.6415 197.366 20.2487C197.604 19.8441 197.985 19.5228 198.508 19.2848C199.044 19.0349 199.758 18.9099 200.65 18.9099H203.881V19.856H200.686C199.782 19.856 199.151 20.0167 198.794 20.338C198.449 20.6593 198.276 21.058 198.276 21.534C198.276 22.0696 198.484 22.498 198.901 22.8193C199.318 23.1406 199.901 23.3013 200.65 23.3013C201.364 23.3013 201.977 23.1406 202.489 22.8193C203.013 22.4861 203.394 22.01 203.632 21.3912L203.917 22.2659C203.679 22.8848 203.263 23.3786 202.668 23.7476C202.084 24.1165 201.347 24.3009 200.454 24.3009Z"/>
<path d="M208.273 24.2117V14.8399H209.558L213.807 22.0339H213.271L217.591 14.8399H218.769V24.2117H217.609V16.2858L217.841 16.3929L213.807 23.0692H213.236L209.165 16.3215L209.433 16.268V24.2117H208.273Z"/>
<path d="M222.376 24.2117V14.8399H223.643V18.9813H229.552V14.8399H230.82V24.2117H229.552V20.0702H223.643V24.2117H222.376Z"/>
<path d="M238.278 24.3009C237.373 24.3009 236.558 24.0986 235.832 23.694C235.118 23.2775 234.553 22.7122 234.136 21.9981C233.72 21.2722 233.512 20.4451 233.512 19.5168C233.512 18.5767 233.72 17.7496 234.136 17.0355C234.553 16.3215 235.118 15.7622 235.832 15.3575C236.546 14.9529 237.361 14.7506 238.278 14.7506C239.206 14.7506 240.027 14.9529 240.741 15.3575C241.467 15.7622 242.032 16.3215 242.437 17.0355C242.854 17.7496 243.062 18.5767 243.062 19.5168C243.062 20.4451 242.854 21.2722 242.437 21.9981C242.032 22.7122 241.467 23.2775 240.741 23.694C240.015 24.0986 239.194 24.3009 238.278 24.3009ZM238.278 23.1763C238.956 23.1763 239.557 23.0276 240.081 22.73C240.604 22.4206 241.015 21.9922 241.312 21.4448C241.622 20.8854 241.777 20.2428 241.777 19.5168C241.777 18.779 241.622 18.1364 241.312 17.5889C241.015 17.0415 240.604 16.619 240.081 16.3215C239.557 16.0121 238.962 15.8574 238.296 15.8574C237.629 15.8574 237.034 16.0121 236.511 16.3215C235.987 16.619 235.57 17.0415 235.261 17.5889C234.952 18.1364 234.797 18.779 234.797 19.5168C234.797 20.2428 234.952 20.8854 235.261 21.4448C235.57 21.9922 235.987 22.4206 236.511 22.73C237.034 23.0276 237.623 23.1763 238.278 23.1763Z"/>
<path d="M249.787 24.3009C248.811 24.3009 247.954 24.0986 247.217 23.694C246.479 23.2775 245.902 22.7122 245.485 21.9981C245.069 21.2722 244.86 20.4451 244.86 19.5168C244.86 18.5886 245.057 17.7674 245.449 17.0534C245.854 16.3394 246.401 15.78 247.092 15.3754C247.794 14.9589 248.579 14.7506 249.448 14.7506C250.329 14.7506 251.108 14.9529 251.786 15.3575C252.477 15.7503 253.018 16.3096 253.411 17.0355C253.804 17.7496 254 18.5767 254 19.5168C254 19.5764 253.994 19.6418 253.982 19.7132C253.982 19.7727 253.982 19.8382 253.982 19.9096H245.824V18.9635H253.304L252.804 19.3383C252.804 18.66 252.655 18.059 252.358 17.5354C252.072 16.9998 251.679 16.5833 251.18 16.2858C250.68 15.9883 250.103 15.8395 249.448 15.8395C248.805 15.8395 248.228 15.9883 247.716 16.2858C247.205 16.5833 246.806 16.9998 246.52 17.5354C246.235 18.0709 246.092 18.6838 246.092 19.374V19.5704C246.092 20.2844 246.247 20.9152 246.556 21.4626C246.877 21.9981 247.318 22.4206 247.877 22.73C248.448 23.0276 249.097 23.1763 249.823 23.1763C250.394 23.1763 250.924 23.0752 251.412 22.8729C251.911 22.6705 252.34 22.3611 252.697 21.9446L253.411 22.7657C252.994 23.2656 252.471 23.6464 251.84 23.9082C251.221 24.17 250.537 24.3009 249.787 24.3009Z"/>
<path d="M158.761 45.633V43.5623L158.707 43.2231V39.76C158.707 38.9626 158.481 38.3497 158.029 37.9213C157.589 37.4929 156.928 37.2787 156.048 37.2787C155.441 37.2787 154.864 37.3798 154.316 37.5821C153.769 37.7845 153.305 38.0522 152.924 38.3854L152.352 37.4393C152.829 37.0347 153.4 36.7253 154.066 36.5111C154.733 36.285 155.435 36.1719 156.173 36.1719C157.386 36.1719 158.321 36.4754 158.975 37.0823C159.642 37.6773 159.975 38.5877 159.975 39.8135V45.633H158.761ZM155.53 45.7222C154.828 45.7222 154.215 45.6092 153.691 45.3831C153.18 45.145 152.787 44.8237 152.513 44.4191C152.239 44.0026 152.103 43.5265 152.103 42.991C152.103 42.5031 152.216 42.0628 152.442 41.67C152.68 41.2654 153.061 40.9441 153.584 40.7061C154.12 40.4562 154.834 40.3312 155.726 40.3312H158.957V41.2773H155.762C154.858 41.2773 154.227 41.438 153.87 41.7593C153.525 42.0806 153.352 42.4793 153.352 42.9553C153.352 43.4908 153.56 43.9193 153.977 44.2406C154.393 44.5619 154.977 44.7226 155.726 44.7226C156.44 44.7226 157.053 44.5619 157.565 44.2406C158.089 43.9074 158.469 43.4313 158.707 42.8125L158.993 43.6872C158.755 44.306 158.339 44.7999 157.744 45.1688C157.16 45.5378 156.423 45.7222 155.53 45.7222Z"/>
<path d="M163.349 45.633V36.2612H169.989V37.3679H164.295L164.616 37.0466V45.633H163.349Z"/>
<path d="M175.402 45.7222C174.426 45.7222 173.569 45.5199 172.831 45.1153C172.093 44.6988 171.516 44.1335 171.1 43.4194C170.683 42.6935 170.475 41.8664 170.475 40.9381C170.475 40.0099 170.671 39.1887 171.064 38.4747C171.469 37.7607 172.016 37.2013 172.706 36.7967C173.408 36.3802 174.194 36.1719 175.063 36.1719C175.943 36.1719 176.723 36.3742 177.401 36.7788C178.091 37.1716 178.633 37.7309 179.026 38.4568C179.418 39.1709 179.615 39.998 179.615 40.9381C179.615 40.9976 179.609 41.0631 179.597 41.1345C179.597 41.194 179.597 41.2595 179.597 41.3309H171.439V40.3848H178.919L178.419 40.7596C178.419 40.0813 178.27 39.4803 177.972 38.9567C177.687 38.4211 177.294 38.0046 176.794 37.7071C176.294 37.4096 175.717 37.2608 175.063 37.2608C174.42 37.2608 173.843 37.4096 173.331 37.7071C172.819 38.0046 172.421 38.4211 172.135 38.9567C171.849 39.4922 171.707 40.1051 171.707 40.7953V40.9917C171.707 41.7057 171.861 42.3365 172.171 42.8839C172.492 43.4194 172.932 43.8419 173.492 44.1513C174.063 44.4489 174.712 44.5976 175.438 44.5976C176.009 44.5976 176.538 44.4965 177.026 44.2941C177.526 44.0918 177.955 43.7824 178.312 43.3659L179.026 44.187C178.609 44.6869 178.085 45.0677 177.455 45.3295C176.836 45.5913 176.152 45.7222 175.402 45.7222Z"/>
<path d="M182.42 45.633V36.2612H183.688V40.4026H189.596V36.2612H190.864V45.633H189.596V41.4915H183.688V45.633H182.42Z"/>
<path d="M196.251 45.633V37.0288L196.573 37.3679H192.699V36.2612H201.071V37.3679H197.197L197.519 37.0288V45.633H196.251Z"/>
<path d="M206.395 45.7222C205.467 45.7222 204.634 45.5199 203.896 45.1153C203.17 44.6988 202.599 44.1335 202.182 43.4194C201.766 42.6935 201.557 41.8664 201.557 40.9381C201.557 39.998 201.766 39.1709 202.182 38.4568C202.599 37.7428 203.17 37.1835 203.896 36.7788C204.634 36.3742 205.467 36.1719 206.395 36.1719C207.192 36.1719 207.912 36.3266 208.555 36.636C209.198 36.9455 209.703 37.4096 210.072 38.0284L209.126 38.6711C208.805 38.195 208.406 37.844 207.93 37.6178C207.454 37.3917 206.937 37.2787 206.377 37.2787C205.711 37.2787 205.11 37.4334 204.574 37.7428C204.039 38.0403 203.616 38.4628 203.307 39.0102C202.997 39.5577 202.843 40.2003 202.843 40.9381C202.843 41.676 202.997 42.3186 203.307 42.8661C203.616 43.4135 204.039 43.8419 204.574 44.1513C205.11 44.4489 205.711 44.5976 206.377 44.5976C206.937 44.5976 207.454 44.4846 207.93 44.2584C208.406 44.0323 208.805 43.6872 209.126 43.2231L210.072 43.8657C209.703 44.4727 209.198 44.9368 208.555 45.2581C207.912 45.5675 207.192 45.7222 206.395 45.7222Z"/>
<path d="M214.137 45.633V37.0288L214.459 37.3679H210.585V36.2612H218.957V37.3679H215.083L215.405 37.0288V45.633H214.137Z"/>
<path d="M220.79 45.633V36.2612H224.931C225.99 36.2612 226.823 36.4635 227.43 36.8681C228.049 37.2727 228.358 37.8678 228.358 38.6532C228.358 39.4149 228.067 40.0039 227.484 40.4205C226.901 40.8251 226.133 41.0274 225.181 41.0274L225.431 40.6525C226.55 40.6525 227.371 40.8608 227.894 41.2773C228.418 41.6938 228.68 42.2948 228.68 43.0803C228.68 43.8895 228.382 44.5203 227.787 44.9725C227.204 45.4128 226.294 45.633 225.056 45.633H220.79ZM222.021 44.6333H225.002C225.8 44.6333 226.401 44.5084 226.805 44.2584C227.222 43.9966 227.43 43.5801 227.43 43.0089C227.43 42.4376 227.246 42.0211 226.877 41.7593C226.508 41.4975 225.925 41.3666 225.127 41.3666H222.021V44.6333ZM222.021 40.4205H224.842C225.568 40.4205 226.121 40.2836 226.502 40.0099C226.895 39.7362 227.091 39.3375 227.091 38.8139C227.091 38.2902 226.895 37.8975 226.502 37.6357C226.121 37.3739 225.568 37.243 224.842 37.243H222.021V40.4205Z"/>
<path d="M235.506 45.7222C234.602 45.7222 233.786 45.5199 233.06 45.1153C232.346 44.6988 231.781 44.1335 231.365 43.4194C230.948 42.6935 230.74 41.8664 230.74 40.9381C230.74 39.998 230.948 39.1709 231.365 38.4568C231.781 37.7428 232.346 37.1835 233.06 36.7788C233.774 36.3742 234.59 36.1719 235.506 36.1719C236.434 36.1719 237.255 36.3742 237.969 36.7788C238.695 37.1835 239.261 37.7428 239.665 38.4568C240.082 39.1709 240.29 39.998 240.29 40.9381C240.29 41.8664 240.082 42.6935 239.665 43.4194C239.261 44.1335 238.695 44.6988 237.969 45.1153C237.244 45.5199 236.422 45.7222 235.506 45.7222ZM235.506 44.5976C236.184 44.5976 236.785 44.4489 237.309 44.1513C237.833 43.8419 238.243 43.4135 238.541 42.8661C238.85 42.3067 239.005 41.6641 239.005 40.9381C239.005 40.2003 238.85 39.5577 238.541 39.0102C238.243 38.4628 237.833 38.0403 237.309 37.7428C236.785 37.4334 236.19 37.2787 235.524 37.2787C234.857 37.2787 234.262 37.4334 233.739 37.7428C233.215 38.0403 232.799 38.4628 232.489 39.0102C232.18 39.5577 232.025 40.2003 232.025 40.9381C232.025 41.6641 232.18 42.3067 232.489 42.8661C232.799 43.4135 233.215 43.8419 233.739 44.1513C234.262 44.4489 234.851 44.5976 235.506 44.5976Z"/>
</mask>
<path d="M157.779 24.3009C156.97 24.3009 156.238 24.1165 155.584 23.7476C154.929 23.3667 154.405 22.8252 154.013 22.1231C153.632 21.4091 153.441 20.5403 153.441 19.5168C153.441 18.4934 153.632 17.6306 154.013 16.9284C154.393 16.2144 154.911 15.6729 155.566 15.304C156.22 14.9351 156.958 14.7506 157.779 14.7506C158.672 14.7506 159.469 14.9529 160.171 15.3575C160.885 15.7503 161.445 16.3096 161.849 17.0355C162.254 17.7496 162.456 18.5767 162.456 19.5168C162.456 20.4689 162.254 21.302 161.849 22.016C161.445 22.73 160.885 23.2894 160.171 23.694C159.469 24.0986 158.672 24.3009 157.779 24.3009ZM152.942 27.6748V14.8399H154.155V17.6603L154.03 19.5347L154.209 21.4269V27.6748H152.942ZM157.69 23.1763C158.356 23.1763 158.951 23.0276 159.475 22.73C159.999 22.4206 160.415 21.9922 160.725 21.4448C161.034 20.8854 161.189 20.2428 161.189 19.5168C161.189 18.7909 161.034 18.1542 160.725 17.6068C160.415 17.0593 159.999 16.6309 159.475 16.3215C158.951 16.0121 158.356 15.8574 157.69 15.8574C157.024 15.8574 156.423 16.0121 155.887 16.3215C155.363 16.6309 154.947 17.0593 154.637 17.6068C154.34 18.1542 154.191 18.7909 154.191 19.5168C154.191 20.2428 154.34 20.8854 154.637 21.4448C154.947 21.9922 155.363 22.4206 155.887 22.73C156.423 23.0276 157.024 23.1763 157.69 23.1763Z" fill="#080808"/>
<path d="M169.196 24.3009C168.22 24.3009 167.363 24.0986 166.625 23.694C165.887 23.2775 165.31 22.7122 164.894 21.9981C164.477 21.2722 164.269 20.4451 164.269 19.5168C164.269 18.5886 164.465 17.7674 164.858 17.0534C165.263 16.3394 165.81 15.78 166.5 15.3754C167.202 14.9589 167.988 14.7506 168.857 14.7506C169.737 14.7506 170.517 14.9529 171.195 15.3575C171.885 15.7503 172.427 16.3096 172.82 17.0355C173.212 17.7496 173.409 18.5767 173.409 19.5168C173.409 19.5764 173.403 19.6418 173.391 19.7132C173.391 19.7727 173.391 19.8382 173.391 19.9096H165.233V18.9635H172.712L172.213 19.3383C172.213 18.66 172.064 18.059 171.766 17.5354C171.481 16.9998 171.088 16.5833 170.588 16.2858C170.088 15.9883 169.511 15.8395 168.857 15.8395C168.214 15.8395 167.637 15.9883 167.125 16.2858C166.613 16.5833 166.215 16.9998 165.929 17.5354C165.643 18.0709 165.501 18.6838 165.501 19.374V19.5704C165.501 20.2844 165.655 20.9152 165.965 21.4626C166.286 21.9981 166.726 22.4206 167.286 22.73C167.857 23.0276 168.506 23.1763 169.232 23.1763C169.803 23.1763 170.332 23.0752 170.82 22.8729C171.32 22.6705 171.749 22.3611 172.106 21.9446L172.82 22.7657C172.403 23.2656 171.879 23.6464 171.249 23.9082C170.63 24.17 169.946 24.3009 169.196 24.3009Z" fill="#080808"/>
<path d="M183.087 24.2117L179.231 19.5704L180.284 18.9456L184.586 24.2117H183.087ZM176.214 24.2117V14.8399H177.482V24.2117H176.214ZM177.089 20.0345V18.9456H180.106V20.0345H177.089ZM180.391 19.6597L179.213 19.4811L182.944 14.8399H184.319L180.391 19.6597Z" fill="#080808"/>
<path d="M184.873 24.1938L184.962 23.1049C185.046 23.1168 185.123 23.1347 185.194 23.1585C185.278 23.1704 185.349 23.1763 185.408 23.1763C185.789 23.1763 186.093 23.0335 186.319 22.7479C186.557 22.4623 186.735 22.0815 186.854 21.6054C186.973 21.1294 187.057 20.5939 187.104 19.9988C187.152 19.3919 187.194 18.785 187.229 18.178L187.39 14.8399H194.263V24.2117H192.995V15.5718L193.317 15.9466H188.211L188.515 15.5539L188.372 18.2673C188.336 19.0765 188.271 19.8501 188.175 20.5879C188.092 21.3258 187.955 21.9743 187.765 22.5337C187.586 23.093 187.336 23.5333 187.015 23.8547C186.694 24.1641 186.283 24.3188 185.783 24.3188C185.641 24.3188 185.492 24.3069 185.337 24.2831C185.194 24.2593 185.04 24.2295 184.873 24.1938Z" fill="#080808"/>
<path d="M203.685 24.2117V22.141L203.632 21.8018V18.3387C203.632 17.5413 203.405 16.9284 202.953 16.5C202.513 16.0716 201.852 15.8574 200.972 15.8574C200.365 15.8574 199.788 15.9585 199.24 16.1608C198.693 16.3632 198.229 16.6309 197.848 16.9641L197.277 16.018C197.753 15.6134 198.324 15.304 198.99 15.0898C199.657 14.8637 200.359 14.7506 201.097 14.7506C202.311 14.7506 203.245 15.0541 203.899 15.661C204.566 16.2561 204.899 17.1665 204.899 18.3922V24.2117H203.685ZM200.454 24.3009C199.752 24.3009 199.139 24.1879 198.615 23.9618C198.104 23.7238 197.711 23.4024 197.437 22.9978C197.163 22.5813 197.027 22.1053 197.027 21.5697C197.027 21.0818 197.14 20.6415 197.366 20.2487C197.604 19.8441 197.985 19.5228 198.508 19.2848C199.044 19.0349 199.758 18.9099 200.65 18.9099H203.881V19.856H200.686C199.782 19.856 199.151 20.0167 198.794 20.338C198.449 20.6593 198.276 21.058 198.276 21.534C198.276 22.0696 198.484 22.498 198.901 22.8193C199.318 23.1406 199.901 23.3013 200.65 23.3013C201.364 23.3013 201.977 23.1406 202.489 22.8193C203.013 22.4861 203.394 22.01 203.632 21.3912L203.917 22.2659C203.679 22.8848 203.263 23.3786 202.668 23.7476C202.084 24.1165 201.347 24.3009 200.454 24.3009Z" fill="#080808"/>
<path d="M208.273 24.2117V14.8399H209.558L213.807 22.0339H213.271L217.591 14.8399H218.769V24.2117H217.609V16.2858L217.841 16.3929L213.807 23.0692H213.236L209.165 16.3215L209.433 16.268V24.2117H208.273Z" fill="#080808"/>
<path d="M222.376 24.2117V14.8399H223.643V18.9813H229.552V14.8399H230.82V24.2117H229.552V20.0702H223.643V24.2117H222.376Z" fill="#080808"/>
<path d="M238.278 24.3009C237.373 24.3009 236.558 24.0986 235.832 23.694C235.118 23.2775 234.553 22.7122 234.136 21.9981C233.72 21.2722 233.512 20.4451 233.512 19.5168C233.512 18.5767 233.72 17.7496 234.136 17.0355C234.553 16.3215 235.118 15.7622 235.832 15.3575C236.546 14.9529 237.361 14.7506 238.278 14.7506C239.206 14.7506 240.027 14.9529 240.741 15.3575C241.467 15.7622 242.032 16.3215 242.437 17.0355C242.854 17.7496 243.062 18.5767 243.062 19.5168C243.062 20.4451 242.854 21.2722 242.437 21.9981C242.032 22.7122 241.467 23.2775 240.741 23.694C240.015 24.0986 239.194 24.3009 238.278 24.3009ZM238.278 23.1763C238.956 23.1763 239.557 23.0276 240.081 22.73C240.604 22.4206 241.015 21.9922 241.312 21.4448C241.622 20.8854 241.777 20.2428 241.777 19.5168C241.777 18.779 241.622 18.1364 241.312 17.5889C241.015 17.0415 240.604 16.619 240.081 16.3215C239.557 16.0121 238.962 15.8574 238.296 15.8574C237.629 15.8574 237.034 16.0121 236.511 16.3215C235.987 16.619 235.57 17.0415 235.261 17.5889C234.952 18.1364 234.797 18.779 234.797 19.5168C234.797 20.2428 234.952 20.8854 235.261 21.4448C235.57 21.9922 235.987 22.4206 236.511 22.73C237.034 23.0276 237.623 23.1763 238.278 23.1763Z" fill="#080808"/>
<path d="M249.787 24.3009C248.811 24.3009 247.954 24.0986 247.217 23.694C246.479 23.2775 245.902 22.7122 245.485 21.9981C245.069 21.2722 244.86 20.4451 244.86 19.5168C244.86 18.5886 245.057 17.7674 245.449 17.0534C245.854 16.3394 246.401 15.78 247.092 15.3754C247.794 14.9589 248.579 14.7506 249.448 14.7506C250.329 14.7506 251.108 14.9529 251.786 15.3575C252.477 15.7503 253.018 16.3096 253.411 17.0355C253.804 17.7496 254 18.5767 254 19.5168C254 19.5764 253.994 19.6418 253.982 19.7132C253.982 19.7727 253.982 19.8382 253.982 19.9096H245.824V18.9635H253.304L252.804 19.3383C252.804 18.66 252.655 18.059 252.358 17.5354C252.072 16.9998 251.679 16.5833 251.18 16.2858C250.68 15.9883 250.103 15.8395 249.448 15.8395C248.805 15.8395 248.228 15.9883 247.716 16.2858C247.205 16.5833 246.806 16.9998 246.52 17.5354C246.235 18.0709 246.092 18.6838 246.092 19.374V19.5704C246.092 20.2844 246.247 20.9152 246.556 21.4626C246.877 21.9981 247.318 22.4206 247.877 22.73C248.448 23.0276 249.097 23.1763 249.823 23.1763C250.394 23.1763 250.924 23.0752 251.412 22.8729C251.911 22.6705 252.34 22.3611 252.697 21.9446L253.411 22.7657C252.994 23.2656 252.471 23.6464 251.84 23.9082C251.221 24.17 250.537 24.3009 249.787 24.3009Z" fill="#080808"/>
<path d="M158.761 45.633V43.5623L158.707 43.2231V39.76C158.707 38.9626 158.481 38.3497 158.029 37.9213C157.589 37.4929 156.928 37.2787 156.048 37.2787C155.441 37.2787 154.864 37.3798 154.316 37.5821C153.769 37.7845 153.305 38.0522 152.924 38.3854L152.352 37.4393C152.829 37.0347 153.4 36.7253 154.066 36.5111C154.733 36.285 155.435 36.1719 156.173 36.1719C157.386 36.1719 158.321 36.4754 158.975 37.0823C159.642 37.6773 159.975 38.5877 159.975 39.8135V45.633H158.761ZM155.53 45.7222C154.828 45.7222 154.215 45.6092 153.691 45.3831C153.18 45.145 152.787 44.8237 152.513 44.4191C152.239 44.0026 152.103 43.5265 152.103 42.991C152.103 42.5031 152.216 42.0628 152.442 41.67C152.68 41.2654 153.061 40.9441 153.584 40.7061C154.12 40.4562 154.834 40.3312 155.726 40.3312H158.957V41.2773H155.762C154.858 41.2773 154.227 41.438 153.87 41.7593C153.525 42.0806 153.352 42.4793 153.352 42.9553C153.352 43.4908 153.56 43.9193 153.977 44.2406C154.393 44.5619 154.977 44.7226 155.726 44.7226C156.44 44.7226 157.053 44.5619 157.565 44.2406C158.089 43.9074 158.469 43.4313 158.707 42.8125L158.993 43.6872C158.755 44.306 158.339 44.7999 157.744 45.1688C157.16 45.5378 156.423 45.7222 155.53 45.7222Z" fill="#080808"/>
<path d="M163.349 45.633V36.2612H169.989V37.3679H164.295L164.616 37.0466V45.633H163.349Z" fill="#080808"/>
<path d="M175.402 45.7222C174.426 45.7222 173.569 45.5199 172.831 45.1153C172.093 44.6988 171.516 44.1335 171.1 43.4194C170.683 42.6935 170.475 41.8664 170.475 40.9381C170.475 40.0099 170.671 39.1887 171.064 38.4747C171.469 37.7607 172.016 37.2013 172.706 36.7967C173.408 36.3802 174.194 36.1719 175.063 36.1719C175.943 36.1719 176.723 36.3742 177.401 36.7788C178.091 37.1716 178.633 37.7309 179.026 38.4568C179.418 39.1709 179.615 39.998 179.615 40.9381C179.615 40.9976 179.609 41.0631 179.597 41.1345C179.597 41.194 179.597 41.2595 179.597 41.3309H171.439V40.3848H178.919L178.419 40.7596C178.419 40.0813 178.27 39.4803 177.972 38.9567C177.687 38.4211 177.294 38.0046 176.794 37.7071C176.294 37.4096 175.717 37.2608 175.063 37.2608C174.42 37.2608 173.843 37.4096 173.331 37.7071C172.819 38.0046 172.421 38.4211 172.135 38.9567C171.849 39.4922 171.707 40.1051 171.707 40.7953V40.9917C171.707 41.7057 171.861 42.3365 172.171 42.8839C172.492 43.4194 172.932 43.8419 173.492 44.1513C174.063 44.4489 174.712 44.5976 175.438 44.5976C176.009 44.5976 176.538 44.4965 177.026 44.2941C177.526 44.0918 177.955 43.7824 178.312 43.3659L179.026 44.187C178.609 44.6869 178.085 45.0677 177.455 45.3295C176.836 45.5913 176.152 45.7222 175.402 45.7222Z" fill="#080808"/>
<path d="M182.42 45.633V36.2612H183.688V40.4026H189.596V36.2612H190.864V45.633H189.596V41.4915H183.688V45.633H182.42Z" fill="#080808"/>
<path d="M196.251 45.633V37.0288L196.573 37.3679H192.699V36.2612H201.071V37.3679H197.197L197.519 37.0288V45.633H196.251Z" fill="#080808"/>
<path d="M206.395 45.7222C205.467 45.7222 204.634 45.5199 203.896 45.1153C203.17 44.6988 202.599 44.1335 202.182 43.4194C201.766 42.6935 201.557 41.8664 201.557 40.9381C201.557 39.998 201.766 39.1709 202.182 38.4568C202.599 37.7428 203.17 37.1835 203.896 36.7788C204.634 36.3742 205.467 36.1719 206.395 36.1719C207.192 36.1719 207.912 36.3266 208.555 36.636C209.198 36.9455 209.703 37.4096 210.072 38.0284L209.126 38.6711C208.805 38.195 208.406 37.844 207.93 37.6178C207.454 37.3917 206.937 37.2787 206.377 37.2787C205.711 37.2787 205.11 37.4334 204.574 37.7428C204.039 38.0403 203.616 38.4628 203.307 39.0102C202.997 39.5577 202.843 40.2003 202.843 40.9381C202.843 41.676 202.997 42.3186 203.307 42.8661C203.616 43.4135 204.039 43.8419 204.574 44.1513C205.11 44.4489 205.711 44.5976 206.377 44.5976C206.937 44.5976 207.454 44.4846 207.93 44.2584C208.406 44.0323 208.805 43.6872 209.126 43.2231L210.072 43.8657C209.703 44.4727 209.198 44.9368 208.555 45.2581C207.912 45.5675 207.192 45.7222 206.395 45.7222Z" fill="#080808"/>
<path d="M214.137 45.633V37.0288L214.459 37.3679H210.585V36.2612H218.957V37.3679H215.083L215.405 37.0288V45.633H214.137Z" fill="#080808"/>
<path d="M220.79 45.633V36.2612H224.931C225.99 36.2612 226.823 36.4635 227.43 36.8681C228.049 37.2727 228.358 37.8678 228.358 38.6532C228.358 39.4149 228.067 40.0039 227.484 40.4205C226.901 40.8251 226.133 41.0274 225.181 41.0274L225.431 40.6525C226.55 40.6525 227.371 40.8608 227.894 41.2773C228.418 41.6938 228.68 42.2948 228.68 43.0803C228.68 43.8895 228.382 44.5203 227.787 44.9725C227.204 45.4128 226.294 45.633 225.056 45.633H220.79ZM222.021 44.6333H225.002C225.8 44.6333 226.401 44.5084 226.805 44.2584C227.222 43.9966 227.43 43.5801 227.43 43.0089C227.43 42.4376 227.246 42.0211 226.877 41.7593C226.508 41.4975 225.925 41.3666 225.127 41.3666H222.021V44.6333ZM222.021 40.4205H224.842C225.568 40.4205 226.121 40.2836 226.502 40.0099C226.895 39.7362 227.091 39.3375 227.091 38.8139C227.091 38.2902 226.895 37.8975 226.502 37.6357C226.121 37.3739 225.568 37.243 224.842 37.243H222.021V40.4205Z" fill="#080808"/>
<path d="M235.506 45.7222C234.602 45.7222 233.786 45.5199 233.06 45.1153C232.346 44.6988 231.781 44.1335 231.365 43.4194C230.948 42.6935 230.74 41.8664 230.74 40.9381C230.74 39.998 230.948 39.1709 231.365 38.4568C231.781 37.7428 232.346 37.1835 233.06 36.7788C233.774 36.3742 234.59 36.1719 235.506 36.1719C236.434 36.1719 237.255 36.3742 237.969 36.7788C238.695 37.1835 239.261 37.7428 239.665 38.4568C240.082 39.1709 240.29 39.998 240.29 40.9381C240.29 41.8664 240.082 42.6935 239.665 43.4194C239.261 44.1335 238.695 44.6988 237.969 45.1153C237.244 45.5199 236.422 45.7222 235.506 45.7222ZM235.506 44.5976C236.184 44.5976 236.785 44.4489 237.309 44.1513C237.833 43.8419 238.243 43.4135 238.541 42.8661C238.85 42.3067 239.005 41.6641 239.005 40.9381C239.005 40.2003 238.85 39.5577 238.541 39.0102C238.243 38.4628 237.833 38.0403 237.309 37.7428C236.785 37.4334 236.19 37.2787 235.524 37.2787C234.857 37.2787 234.262 37.4334 233.739 37.7428C233.215 38.0403 232.799 38.4628 232.489 39.0102C232.18 39.5577 232.025 40.2003 232.025 40.9381C232.025 41.6641 232.18 42.3067 232.489 42.8661C232.799 43.4135 233.215 43.8419 233.739 44.1513C234.262 44.4489 234.851 44.5976 235.506 44.5976Z" fill="#080808"/>
<path d="M157.779 24.3009C156.97 24.3009 156.238 24.1165 155.584 23.7476C154.929 23.3667 154.405 22.8252 154.013 22.1231C153.632 21.4091 153.441 20.5403 153.441 19.5168C153.441 18.4934 153.632 17.6306 154.013 16.9284C154.393 16.2144 154.911 15.6729 155.566 15.304C156.22 14.9351 156.958 14.7506 157.779 14.7506C158.672 14.7506 159.469 14.9529 160.171 15.3575C160.885 15.7503 161.445 16.3096 161.849 17.0355C162.254 17.7496 162.456 18.5767 162.456 19.5168C162.456 20.4689 162.254 21.302 161.849 22.016C161.445 22.73 160.885 23.2894 160.171 23.694C159.469 24.0986 158.672 24.3009 157.779 24.3009ZM152.942 27.6748V14.8399H154.155V17.6603L154.03 19.5347L154.209 21.4269V27.6748H152.942ZM157.69 23.1763C158.356 23.1763 158.951 23.0276 159.475 22.73C159.999 22.4206 160.415 21.9922 160.725 21.4448C161.034 20.8854 161.189 20.2428 161.189 19.5168C161.189 18.7909 161.034 18.1542 160.725 17.6068C160.415 17.0593 159.999 16.6309 159.475 16.3215C158.951 16.0121 158.356 15.8574 157.69 15.8574C157.024 15.8574 156.423 16.0121 155.887 16.3215C155.363 16.6309 154.947 17.0593 154.637 17.6068C154.34 18.1542 154.191 18.7909 154.191 19.5168C154.191 20.2428 154.34 20.8854 154.637 21.4448C154.947 21.9922 155.363 22.4206 155.887 22.73C156.423 23.0276 157.024 23.1763 157.69 23.1763Z" stroke="black" stroke-width="0.8" mask="url(#path-5-outside-1_153_6)"/>
<path d="M169.196 24.3009C168.22 24.3009 167.363 24.0986 166.625 23.694C165.887 23.2775 165.31 22.7122 164.894 21.9981C164.477 21.2722 164.269 20.4451 164.269 19.5168C164.269 18.5886 164.465 17.7674 164.858 17.0534C165.263 16.3394 165.81 15.78 166.5 15.3754C167.202 14.9589 167.988 14.7506 168.857 14.7506C169.737 14.7506 170.517 14.9529 171.195 15.3575C171.885 15.7503 172.427 16.3096 172.82 17.0355C173.212 17.7496 173.409 18.5767 173.409 19.5168C173.409 19.5764 173.403 19.6418 173.391 19.7132C173.391 19.7727 173.391 19.8382 173.391 19.9096H165.233V18.9635H172.712L172.213 19.3383C172.213 18.66 172.064 18.059 171.766 17.5354C171.481 16.9998 171.088 16.5833 170.588 16.2858C170.088 15.9883 169.511 15.8395 168.857 15.8395C168.214 15.8395 167.637 15.9883 167.125 16.2858C166.613 16.5833 166.215 16.9998 165.929 17.5354C165.643 18.0709 165.501 18.6838 165.501 19.374V19.5704C165.501 20.2844 165.655 20.9152 165.965 21.4626C166.286 21.9981 166.726 22.4206 167.286 22.73C167.857 23.0276 168.506 23.1763 169.232 23.1763C169.803 23.1763 170.332 23.0752 170.82 22.8729C171.32 22.6705 171.749 22.3611 172.106 21.9446L172.82 22.7657C172.403 23.2656 171.879 23.6464 171.249 23.9082C170.63 24.17 169.946 24.3009 169.196 24.3009Z" stroke="black" stroke-width="0.8" mask="url(#path-5-outside-1_153_6)"/>
<path d="M183.087 24.2117L179.231 19.5704L180.284 18.9456L184.586 24.2117H183.087ZM176.214 24.2117V14.8399H177.482V24.2117H176.214ZM177.089 20.0345V18.9456H180.106V20.0345H177.089ZM180.391 19.6597L179.213 19.4811L182.944 14.8399H184.319L180.391 19.6597Z" stroke="black" stroke-width="0.8" mask="url(#path-5-outside-1_153_6)"/>
<path d="M184.873 24.1938L184.962 23.1049C185.046 23.1168 185.123 23.1347 185.194 23.1585C185.278 23.1704 185.349 23.1763 185.408 23.1763C185.789 23.1763 186.093 23.0335 186.319 22.7479C186.557 22.4623 186.735 22.0815 186.854 21.6054C186.973 21.1294 187.057 20.5939 187.104 19.9988C187.152 19.3919 187.194 18.785 187.229 18.178L187.39 14.8399H194.263V24.2117H192.995V15.5718L193.317 15.9466H188.211L188.515 15.5539L188.372 18.2673C188.336 19.0765 188.271 19.8501 188.175 20.5879C188.092 21.3258 187.955 21.9743 187.765 22.5337C187.586 23.093 187.336 23.5333 187.015 23.8547C186.694 24.1641 186.283 24.3188 185.783 24.3188C185.641 24.3188 185.492 24.3069 185.337 24.2831C185.194 24.2593 185.04 24.2295 184.873 24.1938Z" stroke="black" stroke-width="0.8" mask="url(#path-5-outside-1_153_6)"/>
<path d="M203.685 24.2117V22.141L203.632 21.8018V18.3387C203.632 17.5413 203.405 16.9284 202.953 16.5C202.513 16.0716 201.852 15.8574 200.972 15.8574C200.365 15.8574 199.788 15.9585 199.24 16.1608C198.693 16.3632 198.229 16.6309 197.848 16.9641L197.277 16.018C197.753 15.6134 198.324 15.304 198.99 15.0898C199.657 14.8637 200.359 14.7506 201.097 14.7506C202.311 14.7506 203.245 15.0541 203.899 15.661C204.566 16.2561 204.899 17.1665 204.899 18.3922V24.2117H203.685ZM200.454 24.3009C199.752 24.3009 199.139 24.1879 198.615 23.9618C198.104 23.7238 197.711 23.4024 197.437 22.9978C197.163 22.5813 197.027 22.1053 197.027 21.5697C197.027 21.0818 197.14 20.6415 197.366 20.2487C197.604 19.8441 197.985 19.5228 198.508 19.2848C199.044 19.0349 199.758 18.9099 200.65 18.9099H203.881V19.856H200.686C199.782 19.856 199.151 20.0167 198.794 20.338C198.449 20.6593 198.276 21.058 198.276 21.534C198.276 22.0696 198.484 22.498 198.901 22.8193C199.318 23.1406 199.901 23.3013 200.65 23.3013C201.364 23.3013 201.977 23.1406 202.489 22.8193C203.013 22.4861 203.394 22.01 203.632 21.3912L203.917 22.2659C203.679 22.8848 203.263 23.3786 202.668 23.7476C202.084 24.1165 201.347 24.3009 200.454 24.3009Z" stroke="black" stroke-width="0.8" mask="url(#path-5-outside-1_153_6)"/>
<path d="M208.273 24.2117V14.8399H209.558L213.807 22.0339H213.271L217.591 14.8399H218.769V24.2117H217.609V16.2858L217.841 16.3929L213.807 23.0692H213.236L209.165 16.3215L209.433 16.268V24.2117H208.273Z" stroke="black" stroke-width="0.8" mask="url(#path-5-outside-1_153_6)"/>
<path d="M222.376 24.2117V14.8399H223.643V18.9813H229.552V14.8399H230.82V24.2117H229.552V20.0702H223.643V24.2117H222.376Z" stroke="black" stroke-width="0.8" mask="url(#path-5-outside-1_153_6)"/>
<path d="M238.278 24.3009C237.373 24.3009 236.558 24.0986 235.832 23.694C235.118 23.2775 234.553 22.7122 234.136 21.9981C233.72 21.2722 233.512 20.4451 233.512 19.5168C233.512 18.5767 233.72 17.7496 234.136 17.0355C234.553 16.3215 235.118 15.7622 235.832 15.3575C236.546 14.9529 237.361 14.7506 238.278 14.7506C239.206 14.7506 240.027 14.9529 240.741 15.3575C241.467 15.7622 242.032 16.3215 242.437 17.0355C242.854 17.7496 243.062 18.5767 243.062 19.5168C243.062 20.4451 242.854 21.2722 242.437 21.9981C242.032 22.7122 241.467 23.2775 240.741 23.694C240.015 24.0986 239.194 24.3009 238.278 24.3009ZM238.278 23.1763C238.956 23.1763 239.557 23.0276 240.081 22.73C240.604 22.4206 241.015 21.9922 241.312 21.4448C241.622 20.8854 241.777 20.2428 241.777 19.5168C241.777 18.779 241.622 18.1364 241.312 17.5889C241.015 17.0415 240.604 16.619 240.081 16.3215C239.557 16.0121 238.962 15.8574 238.296 15.8574C237.629 15.8574 237.034 16.0121 236.511 16.3215C235.987 16.619 235.57 17.0415 235.261 17.5889C234.952 18.1364 234.797 18.779 234.797 19.5168C234.797 20.2428 234.952 20.8854 235.261 21.4448C235.57 21.9922 235.987 22.4206 236.511 22.73C237.034 23.0276 237.623 23.1763 238.278 23.1763Z" stroke="black" stroke-width="0.8" mask="url(#path-5-outside-1_153_6)"/>
<path d="M249.787 24.3009C248.811 24.3009 247.954 24.0986 247.217 23.694C246.479 23.2775 245.902 22.7122 245.485 21.9981C245.069 21.2722 244.86 20.4451 244.86 19.5168C244.86 18.5886 245.057 17.7674 245.449 17.0534C245.854 16.3394 246.401 15.78 247.092 15.3754C247.794 14.9589 248.579 14.7506 249.448 14.7506C250.329 14.7506 251.108 14.9529 251.786 15.3575C252.477 15.7503 253.018 16.3096 253.411 17.0355C253.804 17.7496 254 18.5767 254 19.5168C254 19.5764 253.994 19.6418 253.982 19.7132C253.982 19.7727 253.982 19.8382 253.982 19.9096H245.824V18.9635H253.304L252.804 19.3383C252.804 18.66 252.655 18.059 252.358 17.5354C252.072 16.9998 251.679 16.5833 251.18 16.2858C250.68 15.9883 250.103 15.8395 249.448 15.8395C248.805 15.8395 248.228 15.9883 247.716 16.2858C247.205 16.5833 246.806 16.9998 246.52 17.5354C246.235 18.0709 246.092 18.6838 246.092 19.374V19.5704C246.092 20.2844 246.247 20.9152 246.556 21.4626C246.877 21.9981 247.318 22.4206 247.877 22.73C248.448 23.0276 249.097 23.1763 249.823 23.1763C250.394 23.1763 250.924 23.0752 251.412 22.8729C251.911 22.6705 252.34 22.3611 252.697 21.9446L253.411 22.7657C252.994 23.2656 252.471 23.6464 251.84 23.9082C251.221 24.17 250.537 24.3009 249.787 24.3009Z" stroke="black" stroke-width="0.8" mask="url(#path-5-outside-1_153_6)"/>
<path d="M158.761 45.633V43.5623L158.707 43.2231V39.76C158.707 38.9626 158.481 38.3497 158.029 37.9213C157.589 37.4929 156.928 37.2787 156.048 37.2787C155.441 37.2787 154.864 37.3798 154.316 37.5821C153.769 37.7845 153.305 38.0522 152.924 38.3854L152.352 37.4393C152.829 37.0347 153.4 36.7253 154.066 36.5111C154.733 36.285 155.435 36.1719 156.173 36.1719C157.386 36.1719 158.321 36.4754 158.975 37.0823C159.642 37.6773 159.975 38.5877 159.975 39.8135V45.633H158.761ZM155.53 45.7222C154.828 45.7222 154.215 45.6092 153.691 45.3831C153.18 45.145 152.787 44.8237 152.513 44.4191C152.239 44.0026 152.103 43.5265 152.103 42.991C152.103 42.5031 152.216 42.0628 152.442 41.67C152.68 41.2654 153.061 40.9441 153.584 40.7061C154.12 40.4562 154.834 40.3312 155.726 40.3312H158.957V41.2773H155.762C154.858 41.2773 154.227 41.438 153.87 41.7593C153.525 42.0806 153.352 42.4793 153.352 42.9553C153.352 43.4908 153.56 43.9193 153.977 44.2406C154.393 44.5619 154.977 44.7226 155.726 44.7226C156.44 44.7226 157.053 44.5619 157.565 44.2406C158.089 43.9074 158.469 43.4313 158.707 42.8125L158.993 43.6872C158.755 44.306 158.339 44.7999 157.744 45.1688C157.16 45.5378 156.423 45.7222 155.53 45.7222Z" stroke="black" stroke-width="0.8" mask="url(#path-5-outside-1_153_6)"/>
<path d="M163.349 45.633V36.2612H169.989V37.3679H164.295L164.616 37.0466V45.633H163.349Z" stroke="black" stroke-width="0.8" mask="url(#path-5-outside-1_153_6)"/>
<path d="M175.402 45.7222C174.426 45.7222 173.569 45.5199 172.831 45.1153C172.093 44.6988 171.516 44.1335 171.1 43.4194C170.683 42.6935 170.475 41.8664 170.475 40.9381C170.475 40.0099 170.671 39.1887 171.064 38.4747C171.469 37.7607 172.016 37.2013 172.706 36.7967C173.408 36.3802 174.194 36.1719 175.063 36.1719C175.943 36.1719 176.723 36.3742 177.401 36.7788C178.091 37.1716 178.633 37.7309 179.026 38.4568C179.418 39.1709 179.615 39.998 179.615 40.9381C179.615 40.9976 179.609 41.0631 179.597 41.1345C179.597 41.194 179.597 41.2595 179.597 41.3309H171.439V40.3848H178.919L178.419 40.7596C178.419 40.0813 178.27 39.4803 177.972 38.9567C177.687 38.4211 177.294 38.0046 176.794 37.7071C176.294 37.4096 175.717 37.2608 175.063 37.2608C174.42 37.2608 173.843 37.4096 173.331 37.7071C172.819 38.0046 172.421 38.4211 172.135 38.9567C171.849 39.4922 171.707 40.1051 171.707 40.7953V40.9917C171.707 41.7057 171.861 42.3365 172.171 42.8839C172.492 43.4194 172.932 43.8419 173.492 44.1513C174.063 44.4489 174.712 44.5976 175.438 44.5976C176.009 44.5976 176.538 44.4965 177.026 44.2941C177.526 44.0918 177.955 43.7824 178.312 43.3659L179.026 44.187C178.609 44.6869 178.085 45.0677 177.455 45.3295C176.836 45.5913 176.152 45.7222 175.402 45.7222Z" stroke="black" stroke-width="0.8" mask="url(#path-5-outside-1_153_6)"/>
<path d="M182.42 45.633V36.2612H183.688V40.4026H189.596V36.2612H190.864V45.633H189.596V41.4915H183.688V45.633H182.42Z" stroke="black" stroke-width="0.8" mask="url(#path-5-outside-1_153_6)"/>
<path d="M196.251 45.633V37.0288L196.573 37.3679H192.699V36.2612H201.071V37.3679H197.197L197.519 37.0288V45.633H196.251Z" stroke="black" stroke-width="0.8" mask="url(#path-5-outside-1_153_6)"/>
<path d="M206.395 45.7222C205.467 45.7222 204.634 45.5199 203.896 45.1153C203.17 44.6988 202.599 44.1335 202.182 43.4194C201.766 42.6935 201.557 41.8664 201.557 40.9381C201.557 39.998 201.766 39.1709 202.182 38.4568C202.599 37.7428 203.17 37.1835 203.896 36.7788C204.634 36.3742 205.467 36.1719 206.395 36.1719C207.192 36.1719 207.912 36.3266 208.555 36.636C209.198 36.9455 209.703 37.4096 210.072 38.0284L209.126 38.6711C208.805 38.195 208.406 37.844 207.93 37.6178C207.454 37.3917 206.937 37.2787 206.377 37.2787C205.711 37.2787 205.11 37.4334 204.574 37.7428C204.039 38.0403 203.616 38.4628 203.307 39.0102C202.997 39.5577 202.843 40.2003 202.843 40.9381C202.843 41.676 202.997 42.3186 203.307 42.8661C203.616 43.4135 204.039 43.8419 204.574 44.1513C205.11 44.4489 205.711 44.5976 206.377 44.5976C206.937 44.5976 207.454 44.4846 207.93 44.2584C208.406 44.0323 208.805 43.6872 209.126 43.2231L210.072 43.8657C209.703 44.4727 209.198 44.9368 208.555 45.2581C207.912 45.5675 207.192 45.7222 206.395 45.7222Z" stroke="black" stroke-width="0.8" mask="url(#path-5-outside-1_153_6)"/>
<path d="M214.137 45.633V37.0288L214.459 37.3679H210.585V36.2612H218.957V37.3679H215.083L215.405 37.0288V45.633H214.137Z" stroke="black" stroke-width="0.8" mask="url(#path-5-outside-1_153_6)"/>
<path d="M220.79 45.633V36.2612H224.931C225.99 36.2612 226.823 36.4635 227.43 36.8681C228.049 37.2727 228.358 37.8678 228.358 38.6532C228.358 39.4149 228.067 40.0039 227.484 40.4205C226.901 40.8251 226.133 41.0274 225.181 41.0274L225.431 40.6525C226.55 40.6525 227.371 40.8608 227.894 41.2773C228.418 41.6938 228.68 42.2948 228.68 43.0803C228.68 43.8895 228.382 44.5203 227.787 44.9725C227.204 45.4128 226.294 45.633 225.056 45.633H220.79ZM222.021 44.6333H225.002C225.8 44.6333 226.401 44.5084 226.805 44.2584C227.222 43.9966 227.43 43.5801 227.43 43.0089C227.43 42.4376 227.246 42.0211 226.877 41.7593C226.508 41.4975 225.925 41.3666 225.127 41.3666H222.021V44.6333ZM222.021 40.4205H224.842C225.568 40.4205 226.121 40.2836 226.502 40.0099C226.895 39.7362 227.091 39.3375 227.091 38.8139C227.091 38.2902 226.895 37.8975 226.502 37.6357C226.121 37.3739 225.568 37.243 224.842 37.243H222.021V40.4205Z" stroke="black" stroke-width="0.8" mask="url(#path-5-outside-1_153_6)"/>
<path d="M235.506 45.7222C234.602 45.7222 233.786 45.5199 233.06 45.1153C232.346 44.6988 231.781 44.1335 231.365 43.4194C230.948 42.6935 230.74 41.8664 230.74 40.9381C230.74 39.998 230.948 39.1709 231.365 38.4568C231.781 37.7428 232.346 37.1835 233.06 36.7788C233.774 36.3742 234.59 36.1719 235.506 36.1719C236.434 36.1719 237.255 36.3742 237.969 36.7788C238.695 37.1835 239.261 37.7428 239.665 38.4568C240.082 39.1709 240.29 39.998 240.29 40.9381C240.29 41.8664 240.082 42.6935 239.665 43.4194C239.261 44.1335 238.695 44.6988 237.969 45.1153C237.244 45.5199 236.422 45.7222 235.506 45.7222ZM235.506 44.5976C236.184 44.5976 236.785 44.4489 237.309 44.1513C237.833 43.8419 238.243 43.4135 238.541 42.8661C238.85 42.3067 239.005 41.6641 239.005 40.9381C239.005 40.2003 238.85 39.5577 238.541 39.0102C238.243 38.4628 237.833 38.0403 237.309 37.7428C236.785 37.4334 236.19 37.2787 235.524 37.2787C234.857 37.2787 234.262 37.4334 233.739 37.7428C233.215 38.0403 232.799 38.4628 232.489 39.0102C232.18 39.5577 232.025 40.2003 232.025 40.9381C232.025 41.6641 232.18 42.3067 232.489 42.8661C232.799 43.4135 233.215 43.8419 233.739 44.1513C234.262 44.4489 234.851 44.5976 235.506 44.5976Z" stroke="black" stroke-width="0.8" mask="url(#path-5-outside-1_153_6)"/>
</svg>
